<?xml version="1.0" encoding="utf-8"?>
<!-- Generator: Adobe Illustrator 24.3.0, SVG Export Plug-In . SVG Version: 6.00 Build 0)  -->
<svg version="1.1" id="Layer_1" xmlns="http://www.w3.org/2000/svg" xmlns:xlink="http://www.w3.org/1999/xlink" x="0px" y="0px"
	 viewBox="0 0 1100 500" style="enable-background:new 0 0 1100 500;" xml:space="preserve">
<style type="text/css">
	.st0{fill:#A60522;}
	.st1{fill:#FFFFFF;}
</style>
<g>
	<g>
		<path d="M271.47,388.83c-35.82,27.32-82.41,19.49-107.98-9.48c-25.87-29.32-26.75-72.62-2.04-102.3
			c12.64-15.18,28.75-24.6,48.25-27.72c22.73-3.63,43.27,2.03,61.78,16.04c13.34-13.52,29.77-20.51,48.44-23.2
			c-0.52-0.77-0.68-1.11-0.92-1.37c-19.97-21.97-44.47-35.98-73.78-41.1c-7.74-1.35-14.08-4.46-19.55-10
			c-17.27-17.5-34.68-34.88-52.01-52.33c-2.18-2.2-4.21-4.55-6.52-7.07c8.94-5.84,17.57-11.55,26.27-17.15
			c6.09-3.91,7.44-3.82,13.2,0.79c11.3,9.05,22.49,18.24,33.85,27.22c3.11,2.45,6.45,4.81,10.04,6.42
			c14.84,6.64,30.91-0.75,35.1-16.25c3.21-11.84-0.34-21.93-9.44-30.01c-3.64-3.23-7.58-6.11-11.4-9.12
			c-15.29-12.05-30.58-24.12-45.89-36.14c-6.33-4.97-13.15-8.68-21.61-7.66c-6.55,0.79-11.91,4.2-17.12,7.92
			c-33.08,23.68-66.23,47.27-99.2,71.11c-4.38,3.16-8.46,7.11-11.67,11.43c-5.79,7.79-6.6,16.74-2.46,25.49
			c2.25,4.76,5.43,9.28,8.99,13.18c14.13,15.49,28.58,30.69,42.9,46.01c1,1.07,1.94,2.2,3.2,3.64c-1.48,0.3-2.52,0.64-3.58,0.72
			c-5.72,0.44-11.45,1-17.18,1.18c-15.1,0.49-30.22,0.4-45.29,1.35c-10.78,0.68-21.16,3.69-30.25,9.92
			c-9.61,6.59-13.32,15.73-11.51,27.24c5.91,37.55,11.66,75.13,17.74,112.65c1.24,7.68,2.61,15.65,5.8,22.62
			c5.5,12.04,18.64,16.89,30.95,12.88c12.16-3.96,20.22-16.24,18.35-28.84c-3.38-22.81-7.07-45.57-10.67-68.34
			c-1.5-9.48-3.12-18.94-4.62-28.41c-0.71-4.51,0.68-6.56,4.75-6.63c7.73-0.13,15.47-0.04,23.68-0.04
			c-11.4,34.85-10.03,68.47,6.1,100.86c16.18,32.5,41.87,54.63,76.44,65.82c31.56,10.21,62.78,8.28,93.12-5.23
			c17.13-7.63,31.81-18.62,44.48-33.21C300.93,409.26,284.67,402.12,271.47,388.83z"/>
	</g>
</g>
<ellipse class="st0" cx="54.81" cy="83.63" rx="44.81" ry="44.07"/>
<g>
	<g>
		<path class="st0" d="M693.85,261.77c-2.28-0.01-2.63,1.22-2.65,3.11c-0.04,4.08-0.23,8.16-0.36,12.23
			c-6.15-6.64-12.62-11.6-20.65-14.68c-13.95-5.34-28.1-4.73-42.1-1.17c-14.77,3.76-26.79,12.09-35.17,25.04
			c-5.59,8.64-8.67,18.17-9.73,28.47c-1.27,12.38-1.2,24.61,2.39,36.61c5.23,17.49,15.68,30.48,32.7,37.92
			c10.73,4.69,21.93,6.27,33.49,5.7c8.93-0.44,17.46-2.79,24.91-7.71c5-3.3,9.32-7.62,14.15-11.66c0.43,4.81,0.91,10.17,1.38,15.46
			c10.26,0,20.2,0,30.25,0c0-43.15,0-86.1,0-129.32C712.78,261.79,703.31,261.82,693.85,261.77z M671.63,360.26
			c-7.69,4.61-16.13,5.7-25.14,4.31c-6.66-1.02-12.34-3.62-17.65-7.48c-7.56-5.5-11.37-13.35-13.18-22.1
			c-1.96-9.47-0.79-18.82,3.65-27.51c6.52-12.78,17.52-18.67,31.45-19.44c11.06-0.61,20.8,2.57,28.59,10.89
			c7.35,7.84,10.78,17.06,10.56,23.39C689.72,341.11,684.2,352.72,671.63,360.26z"/>
	</g>
</g>
<g>
	<g>
		<path class="st0" d="M568.83,308.76c-2.87-14.56-10.58-26.88-22.32-35.95c-14.22-10.98-30.55-15.48-48.67-13.36
			c-9.22,1.08-17.59,4.13-25.1,9.33c-3.64,2.53-6.66,5.95-10.02,9.01c-0.63-5.25-1.26-10.47-1.91-15.84c-9.99,0-19.93,0-30.16,0
			c0,61.21,0,122.11,0,182.96c10.78,0,21.31,0,32.07,0c0-22.56,0-44.82,0-67.32c6.89,7.11,11.96,10.41,19.55,13.03
			c12.65,4.36,25.49,4.71,38.56,2.22c15.98-3.04,28.64-11.05,37.9-24.44C571.4,350.09,572.96,329.75,568.83,308.76z M502.01,362.86
			c-20.31-0.14-36.72-15.57-36.22-36.48c0.55-22.75,15.12-35.99,36.34-35.88c21.65,0.11,35.66,13.82,36.03,36.19
			C538.51,347.33,522.28,362.69,502.01,362.86z"/>
	</g>
</g>
<path class="st1" d="M938.29,391.13c0-61.21,0-122.12,0-182.95c-10.79,0-21.32,0-31.78,0c0,61.12,0,121.95,0,182.95
	C917.14,391.13,927.58,391.13,938.29,391.13z"/>
<g>
	<g>
		<path class="st0" d="M1090.72,319.04c-0.79-5.7-0.93-11.56-2.4-17.08c-3.93-14.81-11.62-27.11-25.37-34.96
			c-8.19-4.68-16.87-7.87-26.33-8.16c-8.76-0.27-17.7-1.07-26.25,0.27c-16.06,2.52-29.87,9.79-40.15,23
			c-8.08,10.37-12.56,22.13-13.53,35.04c-0.57,7.5-0.1,15.15,0.71,22.65c1.28,11.94,6.13,22.72,13.75,31.88
			c11.78,14.17,27.71,20.99,45.69,22.45c13.46,1.09,26.95,0.52,39.96-4.28c10.02-3.7,19.23-8.42,26.77-16.59
			c-6.58-6.55-12.89-12.93-19.36-19.13c-0.59-0.56-2.45-0.41-3.34,0.08c-2.56,1.42-4.74,3.6-7.39,4.74
			c-10.35,4.47-20.99,7.22-32.49,5.46c-10-1.53-18.94-4.76-25.34-13.06c-2.93-3.8-4.92-8.01-5.41-13.28c33.62,0,66.91,0,100,0
			c0.45-2.73,0.83-5.07,1.22-7.42c0-3.24,0-6.49,0-9.73C1091.19,320.3,1090.81,319.69,1090.72,319.04z M990.91,311.07
			c1.54-6.49,4.93-11.67,9.72-15.73c12.5-10.58,35.37-11.07,48-2.15c6.13,4.32,8.94,10.46,10.5,17.89
			C1036.34,311.07,1013.81,311.07,990.91,311.07z"/>
	</g>
</g>
<path class="st0" d="M779.13,374.7c-0.72,5.83-1.36,10.95-2.03,16.34c-9.88,0-19.92,0-30.19,0c0-60.94,0-121.86,0-182.97
	c10.57,0,21.01,0,31.81,0c0,23.12,0,46.25,0,70.46c7.12-9.39,16.07-14.32,26.14-17.34c12.62-3.77,25.26-3.05,37.87,0.27
	c17.33,4.57,29.88,15.04,37.65,31.02c4.15,8.53,6.3,17.71,6.46,27.27c0.19,11.11,0.21,22.17-3.71,32.86
	c-8.29,22.58-24.55,35.59-47.91,40.19c-11.91,2.35-23.62,2.03-35.21-2.13C791.48,387.62,784.92,382.21,779.13,374.7z M818.36,363.61
	c20.94,0.62,35.95-16.36,36.18-36.37c0.26-23.01-15.14-36.63-33.55-37.79c-24.06-1.52-39.71,16.85-39.75,36.91
	C781.19,347.74,797.18,364.1,818.36,363.61z"/>
<path class="st0" d="M938.29,391.13c-10.71,0-21.15,0-31.78,0c0-61,0-121.82,0-182.95c10.46,0,20.99,0,31.78,0
	C938.29,269.01,938.29,329.93,938.29,391.13z"/>
<g>
	<g>
		<g>
			<g>
				<path class="st0" d="M374.53,262.08c0,5.18,0,10.08,0,14.97c-5.65-6.33-13.63-12-20.4-14.58c-13.93-5.31-28.09-4.8-42.11-1.26
					c-14.52,3.66-26.32,11.7-34.81,24.34c-5.79,8.62-9.03,18.05-10.22,28.28c-1.56,13.47-1.18,26.75,3,39.83
					c3.38,10.58,8.95,19.84,17.49,26.79c12.83,10.44,27.89,14.98,44.47,14.63c16.93-0.36,31.25-6.05,42.37-20.51
					c0.58,5.94,1.1,11.28,1.61,16.55c10.28,0,20.22,0,30.25,0c0-43.16,0-86.12,0-129.03C395.65,262.08,385.36,262.08,374.53,262.08z
					 M354.73,360.65c-7.69,4.61-16.13,5.7-25.14,4.31c-6.66-1.02-12.34-3.62-17.65-7.48c-7.56-5.5-11.37-13.35-13.18-22.1
					c-1.96-9.47-0.79-18.82,3.65-27.51c6.52-12.78,17.52-18.67,31.45-19.44c11.06-0.61,20.8,2.57,28.59,10.89
					c7.35,7.84,10.78,17.06,10.56,23.39C372.82,341.5,367.3,353.11,354.73,360.65z"/>
			</g>
		</g>
	</g>
</g>
<g>
	<g>
		<path class="st0" d="M161.87,144.13c-11.67-6.36-27.08,0.91-29.6,13.86c-0.35,1.82-0.4,3.7-0.63,5.98
			c-0.99-0.2-1.59-0.29-2.18-0.44c-13.32-3.42-23.31,2.63-26.41,15.99c-1.97,8.5,2.84,17.06,11.28,18.65
			c14.33,2.7,28.77,4.78,43.15,7.15c2.57,0.42,4.1-0.54,4.55-3.1c2.55-14.34,5.37-28.64,7.5-43.04
			C170.47,152.84,167.75,147.34,161.87,144.13z"/>
	</g>
</g>
</svg>
